<svg width="60" height="54" viewBox="0 0 60 54" fill="none" xmlns="http://www.w3.org/2000/svg">
<path d="M9.40997 18.0861H9.51997C9.73519 18.0001 9.96524 17.958 10.1968 17.9621C10.4283 17.9662 10.6568 18.0165 10.8688 18.11C11.0809 18.2035 11.2724 18.3385 11.4323 18.507C11.5921 18.6755 11.7171 18.8743 11.8 19.0918L18.55 36.0777C18.5742 36.135 18.5867 36.1967 18.5866 36.2589C18.5866 36.3212 18.5741 36.3828 18.5498 36.4401C18.5255 36.4974 18.49 36.5491 18.4454 36.5923C18.4007 36.6354 18.3479 36.6691 18.29 36.6912L15.79 37.6969C15.7322 37.7195 15.6706 37.7305 15.6086 37.7291C15.5466 37.7277 15.4855 37.714 15.4288 37.6888C15.3721 37.6636 15.3209 37.6273 15.2782 37.5821C15.2355 37.5368 15.2021 37.4836 15.18 37.4253L8.41997 20.3891C8.33449 20.1726 8.29258 19.9413 8.29666 19.7084C8.30074 19.4756 8.35074 19.2458 8.44376 19.0326C8.53677 18.8193 8.67096 18.6267 8.83853 18.4659C9.0061 18.3052 9.20373 18.1795 9.41997 18.0961L9.40997 18.0861Z" fill="#333333"/>
<path d="M9.84001 20.8416C9.69499 20.4585 9.70483 20.0336 9.86742 19.6576C10.03 19.2817 10.3325 18.9848 10.71 18.8303L11.19 18.6392C11.3088 18.5905 11.433 18.5567 11.56 18.5386C11.3553 18.2546 11.0618 18.0477 10.7265 17.9511C10.3911 17.8544 10.0332 17.8736 9.71001 18.0056L9.23001 18.1967C8.85245 18.3512 8.55002 18.6482 8.38742 19.0241C8.22482 19.4 8.21499 19.825 8.36001 20.2081L15.21 37.4354C15.2501 37.5365 15.3283 37.6176 15.4276 37.6609C15.5269 37.7042 15.6392 37.7063 15.74 37.6667L16.41 37.3952L9.84001 20.8416Z" fill="#515151"/>
<path d="M9.40997 18.0861H9.51997C9.73519 18.0001 9.96524 17.958 10.1968 17.9621C10.4283 17.9662 10.6568 18.0165 10.8688 18.11C11.0809 18.2035 11.2724 18.3385 11.4323 18.507C11.5921 18.6755 11.7171 18.8743 11.8 19.0918L18.55 36.0777C18.5742 36.135 18.5867 36.1967 18.5866 36.2589C18.5866 36.3212 18.5741 36.3828 18.5498 36.4401C18.5255 36.4974 18.49 36.5491 18.4454 36.5923C18.4007 36.6354 18.3479 36.6691 18.29 36.6912L15.79 37.6969C15.7322 37.7195 15.6706 37.7305 15.6086 37.7291C15.5466 37.7277 15.4855 37.714 15.4288 37.6888C15.3721 37.6636 15.3209 37.6273 15.2782 37.5821C15.2355 37.5368 15.2021 37.4836 15.18 37.4253L8.41997 20.3891C8.33449 20.1726 8.29258 19.9413 8.29666 19.7084C8.30074 19.4756 8.35074 19.2458 8.44376 19.0326C8.53677 18.8193 8.67096 18.6267 8.83853 18.4659C9.0061 18.3052 9.20373 18.1795 9.41997 18.0961V18.0961L9.40997 18.0861Z" stroke="#333333" stroke-width="1.5" stroke-linejoin="round"/>
<path d="M9.71001 18.0057L9.23001 18.1968C8.85245 18.3513 8.55002 18.6483 8.38742 19.0242C8.22482 19.4001 8.21499 19.825 8.36001 20.2082L9.20001 22.3301L12.58 21.0228L11.73 18.9008C11.657 18.7077 11.5466 18.5312 11.4052 18.3814C11.2637 18.2316 11.0941 18.1116 10.9062 18.0283C10.7182 17.945 10.5157 17.9002 10.3103 17.8963C10.105 17.8924 9.90094 17.9296 9.71001 18.0057Z" fill="#7C7779"/>
<path d="M9.84002 20.8416C9.69499 20.4585 9.70483 20.0335 9.86742 19.6576C10.03 19.2817 10.3325 18.9848 10.71 18.8303L11.19 18.6392C11.3088 18.5905 11.433 18.5567 11.56 18.5386C11.4608 18.3987 11.3392 18.2763 11.2 18.1766L11.05 18.076L11 18.0056H10C9.90396 18.0217 9.81003 18.0487 9.72002 18.0861L9.24002 18.2771C8.86246 18.4316 8.56002 18.7286 8.39743 19.1045C8.23483 19.4804 8.225 19.9054 8.37002 20.2885L9.21002 22.4105L10.27 22.0283L9.84002 20.8416Z" fill="#9B9B9B"/>
<path d="M9.71001 18.0057L9.23001 18.1968C8.85245 18.3513 8.55002 18.6483 8.38742 19.0242C8.22482 19.4001 8.21499 19.825 8.36001 20.2082L9.20001 22.3301L12.58 21.0228L11.73 18.9008C11.657 18.7077 11.5466 18.5312 11.4052 18.3814C11.2637 18.2316 11.0941 18.1116 10.9062 18.0283C10.7182 17.945 10.5157 17.9002 10.3103 17.8963C10.105 17.8924 9.90094 17.9296 9.71001 18.0057V18.0057Z" stroke="#333333" stroke-width="1.5" stroke-linejoin="round"/>
<path d="M11.1718 23.4127L11.0891 23.6068C10.9694 23.8875 11.0986 24.2127 11.3778 24.3331L11.5708 24.4163C11.85 24.5367 12.1733 24.4067 12.293 24.126L12.3758 23.9319C12.4955 23.6511 12.3662 23.3259 12.0871 23.2055L11.8941 23.1223C11.6149 23.0019 11.2915 23.1319 11.1718 23.4127Z" fill="#515151"/>
<path d="M12.0129 25.5303L11.9301 25.7244C11.8104 26.0052 11.9397 26.3304 12.2189 26.4508L12.4119 26.534C12.691 26.6544 13.0144 26.5244 13.1341 26.2436L13.2169 26.0495C13.3366 25.7688 13.2073 25.4436 12.9281 25.3232L12.7351 25.2399C12.456 25.1196 12.1326 25.2496 12.0129 25.5303Z" fill="#515151"/>
<path d="M12.854 27.6479L12.7712 27.842C12.6515 28.1227 12.7808 28.4479 13.0599 28.5683L13.2529 28.6516C13.5321 28.772 13.8555 28.642 13.9752 28.3612L14.0579 28.1671C14.1777 27.8863 14.0484 27.5611 13.7692 27.4407L13.5762 27.3575C13.297 27.2371 12.9737 27.3671 12.854 27.6479Z" fill="#515151"/>
<path d="M13.6942 29.7693L13.6114 29.9634C13.4917 30.2442 13.621 30.5694 13.9001 30.6898L14.0931 30.773C14.3723 30.8934 14.6957 30.7634 14.8154 30.4827L14.8981 30.2885C15.0179 30.0078 14.8886 29.6826 14.6094 29.5622L14.4164 29.479C14.1372 29.3586 13.8139 29.4886 13.6942 29.7693Z" fill="#515151"/>
<path d="M14.5345 31.8909L14.4517 32.085C14.332 32.3658 14.4613 32.691 14.7405 32.8114L14.9335 32.8946C15.2127 33.015 15.536 32.885 15.6557 32.6042L15.7385 32.4101C15.8582 32.1294 15.7289 31.8042 15.4498 31.6838L15.2568 31.6006C14.9776 31.4802 14.6542 31.6102 14.5345 31.8909Z" fill="#515151"/>
<path d="M15.3795 33.9892L15.2967 34.1833C15.177 34.464 15.3063 34.7892 15.5854 34.9096L15.7784 34.9929C16.0576 35.1133 16.381 34.9833 16.5007 34.7025L16.5834 34.5084C16.7032 34.2276 16.5739 33.9024 16.2947 33.782L16.1017 33.6988C15.8225 33.5784 15.4992 33.7084 15.3795 33.9892Z" fill="#515151"/>
<path d="M43.71 37.6264L41.2 36.6208C41.0849 36.5738 40.9929 36.483 40.9441 36.368C40.8954 36.253 40.8939 36.1233 40.94 36.0073L47.7 19.0113C47.7828 18.7914 47.9085 18.5904 48.0698 18.4202C48.231 18.25 48.4246 18.114 48.639 18.0202C48.8534 17.9265 49.0843 17.8769 49.318 17.8744C49.5518 17.8719 49.7837 17.9165 50 18.0056H50.11C50.3263 18.0889 50.5239 18.2146 50.6915 18.3754C50.8591 18.5361 50.9932 18.7287 51.0863 18.942C51.1793 19.1553 51.2293 19.385 51.2334 19.6179C51.2374 19.8507 51.1955 20.0821 51.11 20.2985L44.35 37.2946C44.3034 37.4104 44.213 37.5029 44.0987 37.5519C43.9844 37.6009 43.8554 37.6024 43.74 37.556L43.71 37.6264Z" fill="#333333"/>
<path d="M43.71 37.6264L41.2 36.6208C41.0849 36.5738 40.9929 36.483 40.9441 36.368C40.8954 36.253 40.8939 36.1233 40.94 36.0073V36.0073L47.7 19.0113C47.7828 18.7914 47.9085 18.5904 48.0698 18.4202C48.231 18.25 48.4246 18.114 48.639 18.0202C48.8534 17.9265 49.0843 17.8769 49.318 17.8744C49.5518 17.8719 49.7837 17.9165 50 18.0056H50.11C50.3263 18.0889 50.5239 18.2146 50.6915 18.3754C50.8591 18.5361 50.9932 18.7287 51.0863 18.942C51.1793 19.1553 51.2293 19.385 51.2334 19.6179C51.2374 19.8507 51.1955 20.0821 51.11 20.2985L44.35 37.2946C44.3034 37.4104 44.213 37.5029 44.0987 37.5519C43.9844 37.6009 43.8554 37.6024 43.74 37.556L43.71 37.6264Z" stroke="#333333" stroke-width="1.5" stroke-linejoin="round"/>
<path d="M49.78 18.0056L50.2701 18.1967C50.6443 18.3553 50.9435 18.6527 51.1055 19.0272C51.2675 19.4017 51.2799 19.8246 51.1401 20.2081L50.2901 22.33L46.92 21.0227L47.76 18.9007C47.8341 18.7085 47.9452 18.5328 48.0869 18.3838C48.2285 18.2347 48.398 18.1152 48.5856 18.0321C48.7732 17.949 48.9752 17.9038 49.1802 17.8993C49.3851 17.8948 49.589 17.9309 49.78 18.0056Z" fill="#7C7779"/>
<path d="M49.78 18.0056L50.2701 18.1967C50.6443 18.3553 50.9435 18.6527 51.1055 19.0272C51.2675 19.4017 51.2799 19.8246 51.1401 20.2081L50.2901 22.33L46.92 21.0227L47.76 18.9007C47.8341 18.7085 47.9452 18.5328 48.0869 18.3838C48.2285 18.2347 48.398 18.1152 48.5856 18.0321C48.7732 17.949 48.9752 17.9038 49.1802 17.8993C49.3851 17.8948 49.589 17.9309 49.78 18.0056V18.0056Z" stroke="#333333" stroke-width="1.5" stroke-linejoin="round"/>
<path d="M47.6002 23.1281L47.4072 23.2113C47.128 23.3317 46.9988 23.6569 47.1185 23.9377L47.2013 24.1318C47.321 24.4125 47.6443 24.5426 47.9235 24.4222L48.1165 24.3389C48.3957 24.2185 48.5249 23.8933 48.4052 23.6126L48.3225 23.4185C48.2028 23.1377 47.8794 23.0077 47.6002 23.1281Z" fill="#515151"/>
<path d="M46.7598 25.2504L46.5668 25.3337C46.2876 25.454 46.1583 25.7792 46.278 26.06L46.3608 26.2541C46.4805 26.5348 46.8039 26.6648 47.083 26.5445L47.276 26.4612C47.5552 26.3408 47.6845 26.0156 47.5648 25.7349L47.482 25.5408C47.3623 25.26 47.0389 25.13 46.7598 25.2504Z" fill="#515151"/>
<path d="M45.9254 27.3635L45.7324 27.4467C45.4532 27.5671 45.324 27.8923 45.4437 28.173L45.5264 28.3671C45.6462 28.6479 45.9695 28.7779 46.2487 28.6575L46.4417 28.5743C46.7209 28.4539 46.8501 28.1287 46.7304 27.8479L46.6477 27.6538C46.5279 27.3731 46.2046 27.2431 45.9254 27.3635Z" fill="#515151"/>
<path d="M45.0757 29.4795L44.8827 29.5628C44.6035 29.6832 44.4742 30.0084 44.594 30.2891L44.6767 30.4832C44.7964 30.764 45.1198 30.894 45.399 30.7736L45.592 30.6904C45.8711 30.57 46.0004 30.2448 45.8807 29.964L45.7979 29.7699C45.6782 29.4892 45.3549 29.3591 45.0757 29.4795Z" fill="#515151"/>
<path d="M44.2313 31.5926L44.0383 31.6758C43.7592 31.7962 43.6299 32.1214 43.7496 32.4022L43.8324 32.5963C43.9521 32.877 44.2754 33.007 44.5546 32.8866L44.7476 32.8034C45.0268 32.683 45.1561 32.3578 45.0363 32.077L44.9536 31.883C44.8339 31.6022 44.5105 31.4722 44.2313 31.5926Z" fill="#515151"/>
<path d="M43.3909 33.7149L43.1979 33.7981C42.9187 33.9185 42.7894 34.2437 42.9091 34.5245L42.9919 34.7186C43.1116 34.9993 43.435 35.1293 43.7141 35.0089L43.9071 34.9257C44.1863 34.8053 44.3156 34.4801 44.1959 34.1994L44.1131 34.0053C43.9934 33.7245 43.67 33.5945 43.3909 33.7149Z" fill="#515151"/>
<path d="M48.85 37.7673C47.3141 36.7746 45.6906 35.9263 44 35.233C40.9599 33.9826 37.7045 33.347 34.42 33.3624H25.09C21.8021 33.3456 18.5433 33.9813 15.5 35.233C13.8094 35.9263 12.1859 36.7746 10.65 37.7673C10.4526 37.9175 10.2334 38.0362 10 38.1193C4.76 39.3864 2.17 39.9194 1 46.8788C10.0216 50.9046 19.7801 52.9907 29.65 53.0034H29.85C39.7228 52.9684 49.4801 50.8654 58.5 46.8285C57.36 39.8691 54.77 39.3361 49.5 38.069C49.2671 38.0085 49.0469 37.9063 48.85 37.7673Z" fill="#BA3555"/>
<path d="M9.89999 41.4682C9.68311 41.4667 9.47258 41.3944 9.30015 41.2621C9.12772 41.1298 9.00273 40.9447 8.94405 40.7347C8.88536 40.5247 8.89614 40.3012 8.97478 40.0979C9.05341 39.8947 9.19563 39.7226 9.37999 39.6077C9.67999 39.4166 16.84 35.0419 21.38 34.6598C21.5113 34.6485 21.6436 34.6634 21.7692 34.7036C21.8948 34.7438 22.0113 34.8084 22.112 34.8939C22.2128 34.9793 22.2958 35.0839 22.3564 35.2016C22.4169 35.3193 22.4538 35.4479 22.465 35.5799C22.4762 35.712 22.4614 35.845 22.4214 35.9713C22.3815 36.0976 22.3172 36.2148 22.2322 36.3161C22.1473 36.4174 22.0433 36.5009 21.9262 36.5618C21.8092 36.6228 21.6813 36.6599 21.55 36.6711C17.48 37.013 10.55 41.2872 10.44 41.3274C10.2786 41.4288 10.0901 41.478 9.89999 41.4682Z" fill="#CE5174"/>
<path d="M8.50999 47.985L12.65 43.9623C14.1178 42.4462 16.0529 41.4749 18.14 41.2067C19.1379 41.128 20.1395 41.1045 21.14 41.1363H38.38C39.3805 41.1045 40.382 41.128 41.38 41.2067C43.4682 41.4711 45.4045 42.443 46.87 43.9623L51.01 47.985C51.1278 48.1038 51.194 48.2647 51.194 48.4325C51.194 48.6003 51.1278 48.7613 51.01 48.88C50.89 48.991 50.733 49.0526 50.57 49.0526C50.407 49.0526 50.25 48.991 50.13 48.88L45.83 45.0283C44.579 43.7718 42.938 42.9839 41.18 42.7957C40.35 42.7253 39.34 42.7957 38.39 42.7957H18.33C16.5697 42.9864 14.9264 43.7738 13.67 45.0283L9.36999 48.88C9.24666 48.9947 9.08308 49.0555 8.91524 49.0489C8.74739 49.0423 8.58903 48.9689 8.47499 48.8448C8.36094 48.7208 8.30056 48.5563 8.30712 48.3875C8.31369 48.2187 8.38666 48.0594 8.50999 47.9448V47.985Z" fill="#8E2346"/>
<path d="M20.19 42.333L17.37 35.9469C17.3164 35.8078 17.317 35.6534 17.3715 35.5146C17.4261 35.3758 17.5307 35.2628 17.6644 35.1981C17.7981 35.1334 17.9512 35.1217 18.0931 35.1655C18.235 35.2092 18.3553 35.3051 18.43 35.434L21.68 41.5989C21.7834 41.7949 21.8052 42.0243 21.7405 42.2365C21.6758 42.4486 21.5299 42.6263 21.335 42.7303C21.1401 42.8343 20.912 42.8562 20.701 42.7911C20.4901 42.7261 20.3134 42.5794 20.21 42.3833C20.206 42.3656 20.1993 42.3486 20.19 42.333Z" fill="#8E2346"/>
<path d="M37.82 41.5989L41.06 35.4341C41.0935 35.3634 41.1405 35.3001 41.1983 35.2477C41.2561 35.1953 41.3237 35.1549 41.397 35.1287C41.4704 35.1026 41.5481 35.0912 41.6259 35.0953C41.7036 35.0994 41.7797 35.1188 41.85 35.1525C41.9203 35.1861 41.9832 35.2334 42.0353 35.2916C42.0874 35.3497 42.1276 35.4176 42.1536 35.4914C42.1796 35.5652 42.1909 35.6434 42.1869 35.7215C42.1828 35.7997 42.1635 35.8763 42.13 35.947L39.31 42.333C39.2183 42.5344 39.0516 42.6915 38.8459 42.7705C38.6402 42.8495 38.4118 42.8441 38.21 42.7554C38.0115 42.6612 37.857 42.4935 37.7787 42.2873C37.7004 42.0811 37.7045 41.8524 37.79 41.6492L37.82 41.5989Z" fill="#8E2346"/>
<path d="M30.5 42.9767L30.12 51.7765C30.1149 51.8743 30.0726 51.9664 30.0019 52.0338C29.9312 52.1012 29.8375 52.1387 29.74 52.1385C29.6469 52.1315 29.5593 52.0912 29.4932 52.0247C29.4271 51.9583 29.387 51.8702 29.38 51.7765L29 42.9767C28.9946 42.879 29.0085 42.7811 29.0408 42.6887C29.073 42.5963 29.1231 42.5113 29.1882 42.4384C29.2532 42.3655 29.3319 42.3063 29.4197 42.2641C29.5076 42.2218 29.6028 42.1974 29.7 42.1923C29.8973 42.1841 30.0899 42.2544 30.2359 42.3881C30.382 42.5218 30.4697 42.708 30.48 42.9063L30.5 42.9767Z" fill="#8E2346"/>
<path d="M48.85 37.7673C47.3141 36.7746 45.6906 35.9263 44 35.233C40.9599 33.9826 37.7045 33.347 34.42 33.3624H25.09C21.8021 33.3456 18.5433 33.9813 15.5 35.233C13.8094 35.9263 12.1859 36.7746 10.65 37.7673C10.4526 37.9175 10.2334 38.0362 10 38.1193C4.76 39.3864 2.17 39.9194 1 46.8788C10.0216 50.9046 19.7801 52.9907 29.65 53.0034H29.85C39.7228 52.9684 49.4801 50.8654 58.5 46.8285C57.36 39.8691 54.77 39.3361 49.5 38.069C49.2671 38.0085 49.0469 37.9063 48.85 37.7673V37.7673Z" stroke="#333333" stroke-width="1.5" stroke-linecap="round" stroke-linejoin="round"/>
<path d="M37.75 25.85H21.75V39.6479H37.75V25.85Z" fill="#BA3555"/>
<path d="M21.75 25.85V30.9689C23.1279 32.9209 24.9214 34.5391 27 35.7057C28.0846 36.0999 29.2402 36.2576 30.39 36.1683C31.5398 36.2576 32.6954 36.0999 33.78 35.7057C35.2696 34.8994 36.6203 33.8568 37.78 32.6182V25.85H21.75Z" fill="#A8224E"/>
<path d="M21.75 27.7708V35.9369" stroke="#333333" stroke-width="1.5" stroke-linecap="round" stroke-linejoin="round"/>
<path d="M37.75 27.7708V35.9369" stroke="#333333" stroke-width="1.5" stroke-linecap="round" stroke-linejoin="round"/>
<path d="M10 38.1193C10 38.1193 11.54 44.8774 7.79 49.4835L1 46.8285L1.55 44.3042C1.55 44.3042 2.83 40.0703 6.74 38.9238C10.65 37.7773 10 38.1193 10 38.1193Z" fill="#333333"/>
<path d="M1.93994 44.9981C2.2067 43.7459 2.79893 42.5872 3.65622 41.6403C4.51351 40.6933 5.60519 39.9919 6.81994 39.6077L7.40994 39.4367C7.66322 39.3582 7.93715 39.384 8.17154 39.5084C8.40593 39.6329 8.58159 39.8459 8.65994 40.1005C8.66471 40.1775 8.66471 40.2548 8.65994 40.3318C8.75048 40.7184 8.68575 41.1253 8.47981 41.4642C8.27387 41.8031 7.94333 42.0467 7.55994 42.142H7.49994C5.36711 42.3964 3.39503 43.4094 1.93994 44.9981Z" fill="#515151"/>
<path d="M49.53 38.1193C49.53 38.1193 48 44.8272 51.75 49.4332L58.5 46.8285L57.94 44.3042C57.94 44.3042 56.67 40.0703 52.76 38.9238C48.85 37.7773 49.53 38.1193 49.53 38.1193Z" fill="#333333"/>
<path d="M57.56 44.9981C57.2932 43.7459 56.701 42.5872 55.8437 41.6403C54.9864 40.6933 53.8947 39.9919 52.68 39.6077L52.09 39.4367C51.8367 39.3582 51.5628 39.384 51.3284 39.5084C51.094 39.6329 50.9183 39.8459 50.84 40.1005C50.8352 40.1775 50.8352 40.2548 50.84 40.3318C50.7495 40.7184 50.8142 41.1253 51.0201 41.4642C51.2261 41.8031 51.5566 42.0467 51.94 42.142H52C54.1328 42.3964 56.1049 43.4094 57.56 44.9981Z" fill="#515151"/>
<path d="M29.83 32.1456C28.6801 32.2349 27.5245 32.0772 26.44 31.6829C23.1 29.9129 19.83 26.021 19.83 23.6978V21.6865C19.49 19.0013 19 16.8793 18.83 14.0533V11.0363C18.83 6.00787 21.89 0.909058 29.83 0.909058C37.7699 0.909058 40.83 6.03804 40.83 11.0363V14.0533C40.9005 15.3798 40.7894 16.7096 40.4999 18.0057C40.2599 19.6248 40.26 19.6248 39.83 21.6865V23.6978C39.83 26.031 36.56 29.923 33.22 31.6829C32.1354 32.0772 30.9798 32.2349 29.83 32.1456Z" fill="#BA3555"/>
<path d="M40.91 14.3952V11.3782C40.91 6.34977 37.85 1.25096 29.91 1.25096C29.3957 1.23927 28.8811 1.26279 28.37 1.32136C26.0011 8.05572 24.8298 15.157 24.91 22.2999C24.9015 25.3241 25.0684 28.3463 25.41 31.351C25.77 31.5924 26.14 31.8136 26.51 32.0148C27.5946 32.409 28.7501 32.5667 29.9 32.4774C31.0498 32.5667 32.2054 32.409 33.29 32.0148C36.64 30.2649 39.91 26.3628 39.91 24.0397V22.0283C40.17 20.0874 40.83 16.1149 40.91 14.3952Z" fill="#A8224E"/>
<path d="M24.7199 2.52817L25.4999 12.8263C25.5084 12.9789 25.4581 13.1289 25.3593 13.245C25.2606 13.3612 25.1211 13.4345 24.9699 13.4498C24.8254 13.4591 24.6827 13.4137 24.5699 13.3225C24.457 13.2313 24.3821 13.1009 24.3599 12.9571L22.9999 2.71925C22.9831 2.60287 22.9894 2.48428 23.0186 2.37041C23.0478 2.25653 23.0993 2.14966 23.1701 2.05602C23.2409 1.96239 23.3295 1.88388 23.4307 1.82508C23.532 1.76628 23.6439 1.72837 23.7599 1.71357C23.9928 1.68475 24.2276 1.74852 24.4144 1.89129C24.6012 2.03405 24.7252 2.24453 24.7599 2.47788C24.7415 2.48978 24.7274 2.50745 24.7199 2.52817Z" fill="#8E2346"/>
<path d="M25.25 21.8575L26.72 31.7534C26.7638 31.9961 26.7099 32.2464 26.5701 32.4491C26.4304 32.6519 26.2164 32.7905 25.975 32.8345C25.7337 32.8785 25.4848 32.8243 25.2832 32.6838C25.0816 32.5433 24.9438 32.328 24.9 32.0853V31.9948L24.25 22.0083C24.2538 21.9409 24.2708 21.875 24.3001 21.8142C24.3293 21.7534 24.3702 21.6991 24.4203 21.6542C24.4705 21.6094 24.529 21.5749 24.5924 21.5528C24.6559 21.5308 24.723 21.5215 24.79 21.5256C24.891 21.5277 24.9891 21.5605 25.0712 21.6198C25.1533 21.679 25.2157 21.7619 25.25 21.8575Z" fill="#8E2346"/>
<path d="M36.55 2.71928L35.13 12.9772C35.1202 13.0505 35.096 13.1212 35.0591 13.1851C35.0221 13.249 34.9729 13.305 34.9144 13.3498C34.8559 13.3946 34.7892 13.4274 34.7181 13.4463C34.647 13.4652 34.5729 13.4699 34.5 13.4599C34.3559 13.4399 34.2249 13.3652 34.1338 13.2511C34.0427 13.1371 33.9984 12.9923 34.01 12.8465L34.79 2.54832C34.7976 2.43109 34.8283 2.31655 34.8803 2.21138C34.9324 2.10621 35.0047 2.01252 35.0931 1.93576C35.1816 1.859 35.2843 1.80071 35.3954 1.7643C35.5064 1.72788 35.6236 1.71407 35.74 1.72366H35.79C35.9057 1.73132 36.0187 1.76188 36.1226 1.81359C36.2264 1.8653 36.3191 1.93713 36.3953 2.02497C36.4715 2.11281 36.5297 2.21493 36.5665 2.32545C36.6034 2.43597 36.6182 2.55272 36.61 2.669C36.6053 2.68884 36.6053 2.7095 36.61 2.72934L36.55 2.71928Z" fill="#8E2346"/>
<path d="M35.25 21.9681L34.6 31.9545C34.5912 32.0775 34.5583 32.1974 34.5031 32.3075C34.448 32.4176 34.3718 32.5157 34.2789 32.5961C34.1859 32.6764 34.0781 32.7376 33.9616 32.7759C33.8451 32.8142 33.7222 32.829 33.6 32.8194C33.3541 32.7988 33.1261 32.6819 32.9652 32.4937C32.8043 32.3055 32.7234 32.0613 32.74 31.8137V31.7333L34.22 21.8374C34.2263 21.7712 34.2455 21.707 34.2766 21.6483C34.3077 21.5897 34.35 21.5378 34.4012 21.4957C34.4523 21.4537 34.5113 21.4222 34.5746 21.4032C34.6379 21.3841 34.7043 21.3779 34.77 21.3848C34.9038 21.4 35.0261 21.4677 35.1104 21.5732C35.1947 21.6787 35.2341 21.8134 35.22 21.948L35.25 21.9681Z" fill="#8E2346"/>
<path d="M40.7201 14.0532L40.6601 14.8979C40.4901 17.1507 40.2501 19.3933 39.9201 21.6259C39.8125 23.5859 39.2873 25.4997 38.3801 27.2376C37.612 28.3916 36.6824 29.428 35.6201 30.315C34.8906 30.9676 34.0846 31.5282 33.2201 31.9845C32.1355 32.3787 30.9799 32.5364 29.8301 32.4471C28.6802 32.5364 27.5246 32.3787 26.4401 31.9845C25.3335 31.4907 24.3189 30.8105 23.4401 29.9731C22.4651 29.1502 21.6395 28.1634 21 27.0566C20.3611 25.888 19.9791 24.5951 19.88 23.2652C19.3102 19.2205 18.9497 15.1487 18.8 11.0663C18.8 6.03789 21.86 0.939087 29.8001 0.939087C34.2001 0.939087 38.5101 2.81971 40.1301 7.18437C40.8141 9.40494 41.0154 11.7475 40.7201 14.0532Z" stroke="#333333" stroke-width="1.5" stroke-linejoin="round"/>
<path d="M27.75 21.7568H28.39C28.8067 22.0036 29.2814 22.1337 29.765 22.1337C30.2486 22.1337 30.7233 22.0036 31.14 21.7568H31.75" stroke="#8E2346" stroke-linecap="round" stroke-linejoin="round"/>
<path d="M25.6101 13.3694C25.283 12.7165 24.7547 12.1874 24.1041 11.8611C23.4535 11.5349 22.7154 11.429 22.0001 11.5592C21.5479 11.6407 21.1167 11.8126 20.7319 12.0648C20.3471 12.317 20.0167 12.6444 19.7601 13.0275L18.55 14.0332C18.55 14.0332 19.55 21.4249 19.55 21.6663L21.3801 22.8932C22.026 23.1633 22.7394 23.2252 23.4218 23.0703C24.1043 22.9154 24.7221 22.5513 25.1901 22.0283L26.8601 20.198C27.281 19.737 27.5517 19.1575 27.6357 18.5373C27.7197 17.9171 27.6131 17.2859 27.3301 16.7284L25.6101 13.3694Z" fill="#333333"/>
<path d="M33.72 13.3694C34.0456 12.7221 34.569 12.1969 35.2134 11.8711C35.8579 11.5452 36.5892 11.4359 37.3 11.5592C37.7521 11.6406 38.1834 11.8126 38.5682 12.0648C38.9529 12.317 39.2834 12.6444 39.54 13.0275L40.75 14.0332C40.75 14.0332 39.75 21.425 39.75 21.6663L37.92 22.8933C37.2783 23.1594 36.5704 23.2192 35.8935 23.0643C35.2166 22.9095 34.6041 22.5476 34.14 22.0284L32.47 20.198C32.049 19.7432 31.778 19.1687 31.6938 18.5531C31.6097 17.9375 31.7166 17.3108 32 16.7586L33.72 13.3694Z" fill="#333333"/>
<path d="M25.687 17.7877C25.8051 17.3538 25.4689 16.8832 24.9362 16.7366C24.4035 16.5901 23.876 16.823 23.7579 17.257C23.6399 17.6909 23.976 18.1615 24.5088 18.3081C25.0415 18.4547 25.569 18.2217 25.687 17.7877Z" fill="white"/>
<path d="M35.157 18.3305C35.6921 18.1931 36.0362 17.7283 35.9256 17.2924C35.8149 16.8565 35.2914 16.6145 34.7563 16.7519C34.2212 16.8892 33.8771 17.354 33.9877 17.7899C34.0983 18.2258 34.6218 18.4678 35.157 18.3305Z" fill="white"/>
</svg>
