<svg width="54" height="56" viewBox="0 0 54 56" fill="none" xmlns="http://www.w3.org/2000/svg">
<path d="M51.36 44.67C51.1362 43.5423 50.5931 42.5026 49.7953 41.6746C48.9975 40.8467 47.9787 40.2655 46.86 40L26.62 35.89L6.37 40C5.23306 40.3397 4.21165 40.9861 3.41785 41.8681C2.62404 42.7501 2.08851 43.8337 1.87 45L1 49.33C9.05084 53.0019 17.7963 54.9021 26.645 54.9021C35.4937 54.9021 44.2392 53.0019 52.29 49.33L51.36 44.67Z" fill="#434242"/>
<path d="M46.86 43.34L26.62 39.22L6.36999 43.31C5.23521 43.6537 4.21607 44.3013 3.42289 45.1826C2.6297 46.0639 2.09269 47.1454 1.86999 48.31L1.60999 49.59C9.49057 53.096 18.0197 54.9076 26.645 54.9076C35.2703 54.9076 43.7994 53.096 51.68 49.59L51.36 48C51.1345 46.874 50.5906 45.8365 49.7929 45.0105C48.9953 44.1845 47.9773 43.6047 46.86 43.34Z" fill="#333333"/>
<path d="M19.6 30.34H33.6V39.34C31.6606 40.9977 29.1442 41.821 26.6 41.63C24.057 41.8112 21.5442 40.9891 19.6 39.34V30.34Z" fill="#D8B3AD"/>
<path d="M37 15.8V13.28C37 5.84 33.24 3.85 26.67 3.84C20.1 3.83 16.28 5.77 16.28 13.28V15.8C12.8 15.8 14.74 25.35 17.22 25.05L17.88 29.51C18.0905 30.4048 18.5318 31.2289 19.16 31.9C20.1674 32.9614 21.2359 33.9631 22.36 34.9C23.56 35.9 25.36 35.78 26.61 35.78C27.86 35.78 29.67 35.85 30.89 34.9C32.0113 33.9634 33.0764 32.9617 34.08 31.9C34.6997 31.2243 35.1369 30.4017 35.35 29.51L36 25.08C37.06 25.21 38 23.48 38.58 21.4C39.2 19 38.83 15.8 37 15.8Z" fill="#EDCCC3"/>
<path d="M37 15.8V13.28C37 5.83998 33.24 3.84998 26.67 3.83998C25.6976 3.83453 24.7259 3.88796 23.76 3.99998V14.82C23.76 16.92 21.66 16.92 21.66 17.97C22.98 17.9766 24.289 18.21 25.53 18.66C25.77 18.75 27.05 17.66 27.05 19.25V22.38C27.05 23.63 28.3 25.38 26.76 25.38C25.99 25.38 26.38 25.16 25.76 25.01C24.45 24.73 24.15 26.01 24.53 26.01C26.21 26.07 25.45 26.55 26.84 26.57V30.43C26.84 30.73 27.1 31.22 27.39 31.22C28.26 31.22 29.71 31.49 29.72 32.08C29.5984 32.6484 29.3306 33.1752 28.943 33.6084C28.5554 34.0416 28.0614 34.3662 27.51 34.55H25.86C25.6271 34.5674 25.4001 34.6312 25.1923 34.7377C24.9845 34.8441 24.8001 34.9911 24.65 35.17C24.65 35.35 24.65 35.51 24.65 35.67C25.2949 35.7281 25.9427 35.7482 26.59 35.73C27.81 35.73 29.65 35.8 30.87 34.85C31.9912 33.9134 33.0564 32.9116 34.06 31.85C34.6797 31.1743 35.1168 30.3517 35.33 29.46L36 25.08C37.06 25.21 38 23.48 38.58 21.4C39.2 19 38.83 15.8 37 15.8Z" fill="#E5C2BA"/>
<path d="M26.81 26.61V27.32" stroke="#D8B3AD" stroke-width="0.75" stroke-miterlimit="10" stroke-linecap="round"/>
<path d="M29 26.05C28.848 25.9622 28.6755 25.916 28.5 25.916C28.3244 25.916 28.152 25.9622 28 26.05C27.61 26.24 27.33 26.61 26.81 26.61C26.29 26.61 25.99 26.2 25.61 26.05C25.4602 25.9559 25.2869 25.906 25.11 25.906C24.9331 25.906 24.7598 25.9559 24.61 26.05" stroke="#B58985" stroke-width="0.721215" stroke-miterlimit="10" stroke-linecap="round"/>
<path d="M23.01 28.8101V29.6501" stroke="#E5C2BA" stroke-width="0.75" stroke-miterlimit="10" stroke-linecap="round"/>
<path d="M30.51 28.8101V29.6501" stroke="#D8B3AD" stroke-width="0.75" stroke-miterlimit="10" stroke-linecap="round"/>
<path d="M17.22 25.08L17.88 28.94C18.077 30.0231 18.5144 31.0483 19.16 31.94C19.67 32.43 20.52 33.39 21.08 33.82C20.8226 32.7314 20.8711 31.5928 21.22 30.53C21.44 28.05 20.67 26.93 22.06 25.17C22.06 24.61 19.8 24.65 18.67 23.66C18.2981 23.285 18.0896 22.7781 18.09 22.25L18.21 19.44C18.21 17.44 16.83 15.84 16.28 15.84C12.8 15.8 14.74 25.35 17.22 25.08Z" fill="#E5C2BA"/>
<path d="M36 25.08L35.34 28.94C35.1431 30.0232 34.7057 31.0484 34.06 31.94C33.55 32.43 32.7 33.39 32.14 33.82C32.405 32.7187 32.3565 31.5652 32 30.4901C31.78 28.0101 32.21 27 30.82 25.23C30.82 24.67 33.42 24.6101 34.55 23.6201C34.9219 23.2451 35.1304 22.7382 35.13 22.21L35 19.4C35 17.4 36.38 15.8 36.93 15.8C40.45 15.8 38.51 25.35 36 25.08Z" fill="#DDBAB6"/>
<path d="M25.73 19.4H27.63" stroke="#333333" stroke-miterlimit="10"/>
<path d="M18.17 17.6601C20.47 16.5101 24.67 17.8501 25.5 18.6601C27.06 20.2201 24.5 22.3801 21.68 22.3801C18.86 22.3801 15.87 18.8001 18.17 17.6601Z" fill="#343433"/>
<path d="M35.1 17.6601C32.8 16.5101 28.6 17.8501 27.77 18.6601C26.21 20.2201 28.77 22.3801 31.59 22.3801C34.41 22.3801 37.4 18.8001 35.1 17.6601Z" fill="#343433"/>
<path d="M19.6 34.89V32.35" stroke="#343433" stroke-width="1.5" stroke-linejoin="round"/>
<path d="M34.89 37.48L46.89 39.98C48.028 40.3177 49.0506 40.9634 49.8447 41.8457C50.6388 42.7281 51.1736 43.8128 51.39 44.98L52.26 49.33C44.2159 53.007 35.4747 54.9102 26.63 54.9102C17.7853 54.9102 9.04414 53.007 1 49.33L1.9 45C2.11851 43.8337 2.65404 42.7501 3.44785 41.868C4.24165 40.986 5.26306 40.3397 6.4 40L18.4 37.5" stroke="#343433" stroke-width="1.5" stroke-linejoin="round"/>
<path d="M34.11 34.27L35.11 37.86C33.27 40.41 31.26 41.12 28.61 41.53V38.93C28.614 38.5308 28.7438 38.143 28.9807 37.8217C29.2177 37.5004 29.5498 37.2619 29.93 37.14C31.5365 36.5385 32.9715 35.5532 34.11 34.27Z" fill="#444444" stroke="#343433" stroke-width="1.5" stroke-linejoin="round"/>
<path d="M19.13 34.27L18.13 37.86C19.97 40.41 21.98 41.12 24.63 41.53V38.93C24.6259 38.5308 24.4962 38.143 24.2593 37.8217C24.0223 37.5004 23.6902 37.2619 23.31 37.14C21.7035 36.5385 20.2685 35.5532 19.13 34.27Z" fill="#444444" stroke="#343433" stroke-width="1.5" stroke-linejoin="round"/>
<path d="M33.63 34.89V32.35" stroke="#343433" stroke-width="1.5" stroke-linejoin="round"/>
<path d="M37 15.8V13.28C37 5.84 33.24 3.85 26.67 3.84C20.1 3.83 16.28 5.77 16.28 13.28V15.8C12.8 15.8 14.74 25.35 17.22 25.05L17.88 29.51C18.0905 30.4048 18.5318 31.2289 19.16 31.9C20.1674 32.9614 21.2359 33.9631 22.36 34.9C23.56 35.9 25.36 35.78 26.61 35.78C27.86 35.78 29.67 35.85 30.89 34.9C32.0113 33.9634 33.0764 32.9617 34.08 31.9C34.6997 31.2243 35.1369 30.4017 35.35 29.51L36 25.08C37.06 25.21 38 23.48 38.58 21.4C39.2 19 38.83 15.8 37 15.8Z" stroke="#343433" stroke-width="1.5" stroke-linejoin="round"/>
<path d="M21.57 1.90002C16.5 1.90002 15.42 5.41002 15.09 8.26002C14.76 11.11 14.62 16.87 14.62 16.87C15.5422 17.4567 16.207 18.3717 16.48 19.43C16.72 20.11 17.09 20.88 17.63 20.88C17.63 20.88 17.18 16.21 18.25 14.19C18.4339 13.8508 18.4872 13.4559 18.4 13.08C16.85 11.08 21.91 7.30002 23.63 7.95002C25.07 8.47002 25.45 8.95002 26.63 8.95002C27.81 8.95002 28.19 8.47002 29.63 7.95002C31.63 7.08002 36.63 11.03 34.87 13.08C34.7663 13.466 34.8128 13.8769 35 14.23C36.07 16.23 35.65 20.92 35.62 20.92C36.16 20.92 36.53 20.15 36.77 19.47C37.0263 18.4441 37.6719 17.5583 38.57 17C37.91 6.77002 37.79 4.18002 34.69 2.39002C31.37 0.460022 23 -1.60998 21.57 1.90002Z" fill="#343433"/>
<path d="M24.59 7.30004C24.2937 6.71053 24.117 6.06818 24.07 5.41004C24.0095 4.73967 24.0602 4.0639 24.22 3.41004C24.3818 2.74999 24.6779 2.13041 25.09 1.59004C25.503 1.05762 26.0575 0.652164 26.69 0.420044C26.3324 0.947101 26.018 1.50225 25.75 2.08004C25.5128 2.61158 25.3254 3.16394 25.19 3.73004C24.9302 4.90921 24.7299 6.10072 24.59 7.30004Z" fill="#444444"/>
<path d="M26.61 3.63007C26.6245 3.26166 26.7219 2.90126 26.8951 2.57575C27.0682 2.25023 27.3126 1.968 27.61 1.75007C27.9102 1.52175 28.2489 1.34903 28.61 1.24007C28.9539 1.1236 29.3196 1.08601 29.68 1.13007C29.12 1.60007 28.61 1.94007 28.12 2.33007C27.594 2.73638 27.09 3.17032 26.61 3.63007Z" fill="#444444"/>
<path d="M24.59 7.3C24.0194 7.01843 23.5279 6.59914 23.16 6.08C22.7725 5.54909 22.5218 4.93086 22.43 4.28C22.3407 3.61698 22.4595 2.9426 22.77 2.35C23.0439 1.79263 23.4705 1.32448 24 1C23.7875 1.53441 23.6104 2.08227 23.47 2.64C23.3485 3.144 23.3214 3.66613 23.39 4.18C23.5891 5.28652 23.9963 6.34524 24.59 7.3Z" fill="#444444"/>
<path d="M24.4 7.08005C23.55 6.31005 22.83 5.59005 22.04 4.96005C21.649 4.64102 21.2382 4.34709 20.81 4.08005C20.39 3.78005 19.93 3.55005 19.43 3.23005C20.0059 3.13069 20.5977 3.17886 21.15 3.37005C21.7025 3.5577 22.2171 3.84213 22.67 4.21005C23.1111 4.58285 23.4922 5.02132 23.8 5.51005C24.107 5.98593 24.3114 6.52067 24.4 7.08005Z" fill="#444444"/>
<path d="M24.4 7.08007C23.18 6.67007 22.1 6.18007 20.99 5.81007C20.4419 5.6244 19.8845 5.46752 19.32 5.34007C18.7259 5.2285 18.1242 5.16164 17.52 5.14007C18.0758 4.78132 18.7188 4.5808 19.38 4.56007C20.0354 4.55399 20.6874 4.65533 21.31 4.86007C21.9213 5.07249 22.5001 5.36865 23.03 5.74007C23.5622 6.10231 24.0261 6.55599 24.4 7.08007Z" fill="#444444"/>
<path d="M24.4 7.08007C23.0905 6.73235 21.7513 6.50804 20.4 6.41007C19.7523 6.37658 19.1028 6.40337 18.46 6.49007C17.7869 6.58869 17.1193 6.7222 16.46 6.89007C16.9692 6.36831 17.5921 5.97131 18.28 5.73007C18.9754 5.48297 19.7133 5.37757 20.45 5.42007C21.1789 5.44996 21.8968 5.6091 22.57 5.89007C23.2578 6.15197 23.8817 6.55767 24.4 7.08007Z" fill="#444444"/>
<path d="M28.62 47.73C28.62 47.5322 28.6786 47.3389 28.7885 47.1744C28.8984 47.01 29.0546 46.8818 29.2373 46.8061C29.42 46.7304 29.6211 46.7106 29.8151 46.7492C30.0091 46.7878 30.1873 46.883 30.3271 47.0229C30.467 47.1627 30.5622 47.3409 30.6008 47.5349C30.6394 47.7289 30.6196 47.9299 30.5439 48.1127C30.4682 48.2954 30.34 48.4516 30.1756 48.5615C30.0111 48.6713 29.8178 48.73 29.62 48.73C29.3548 48.73 29.1004 48.6246 28.9129 48.4371C28.7254 48.2496 28.62 47.9952 28.62 47.73Z" fill="#444444"/>
<path d="M28.62 51.9C28.62 51.7022 28.6786 51.5089 28.7885 51.3445C28.8984 51.18 29.0546 51.0518 29.2373 50.9761C29.42 50.9005 29.6211 50.8807 29.8151 50.9192C30.0091 50.9578 30.1873 51.0531 30.3271 51.1929C30.467 51.3328 30.5622 51.511 30.6008 51.7049C30.6394 51.8989 30.6196 52.1 30.5439 52.2827C30.4682 52.4654 30.34 52.6216 30.1756 52.7315C30.0111 52.8414 29.8178 52.9 29.62 52.9C29.3548 52.9 29.1004 52.7947 28.9129 52.6071C28.7254 52.4196 28.62 52.1652 28.62 51.9Z" fill="#444444"/>
<path d="M26.62 43.39V54.9" stroke="#444444" stroke-linejoin="round"/>
<path d="M28.19 28C27.7908 27.9467 27.3847 27.9809 27 28.1C26.8629 28.14 26.7172 28.14 26.58 28.1C26.2016 27.9837 25.8027 27.9496 25.41 28C24.74 28.09 24.36 28.52 23.01 29.25L24.51 29.98C24.8788 30.2485 25.3238 30.3922 25.78 30.39H27.85C28.304 30.398 28.7488 30.2614 29.12 30L30.51 29.3C29.16 28.52 28.86 28.06 28.19 28Z" fill="#DDBAB6"/>
<path d="M30.51 29.25C29.51 29.25 29.09 28.86 28.11 28.86C27.6764 28.8782 27.245 28.9317 26.82 29.02C26.3951 28.9317 25.9636 28.8782 25.53 28.86C24.59 28.86 24.08 29.22 23.01 29.22" stroke="#AF8582" stroke-width="0.6" stroke-miterlimit="10" stroke-linecap="round"/>
<path d="M25.37 31.1H28.15" stroke="#D8B3AD" stroke-width="0.75" stroke-miterlimit="10" stroke-linecap="round"/>
<path d="M31.38 18.08C30.8857 18.0103 30.3822 18.0485 29.9041 18.1917C29.426 18.335 28.9845 18.58 28.61 18.91C28.1 19.61 29.22 20.29 30.31 20.12C31.4 19.95 32.34 18.37 31.38 18.08Z" fill="#494949"/>
<path d="M18.42 18.26C18.8413 18.0024 19.3139 17.8403 19.8045 17.785C20.2952 17.7298 20.792 17.7826 21.26 17.94C21.99 18.37 21.26 19.43 20.18 19.69C19.1 19.95 17.67 18.91 18.42 18.26Z" fill="#494949"/>
</svg>
